<?xml version="1.0" standalone="no"?>
<!DOCTYPE svg PUBLIC "-//W3C//DTD SVG 20010904//EN"
 "http://www.w3.org/TR/2001/REC-SVG-20010904/DTD/svg10.dtd">
<svg version="1.0" xmlns="http://www.w3.org/2000/svg"
 width="410.000000pt" height="410.000000pt" viewBox="0 0 410.000000 410.000000"
 preserveAspectRatio="xMidYMid meet">
<metadata>
Created by potrace 1.11, written by Peter Selinger 2001-2013
</metadata>
<g transform="translate(0.000000,410.000000) scale(0.100000,-0.100000)"
fill="#000000" stroke="none">
<path d="M2493 3907 c-17 -6 -69 -50 -115 -96 -46 -46 -114 -104 -152 -129
l-69 -45 -71 6 c-39 3 -97 13 -129 21 -68 19 -330 21 -442 5 -167 -24 -161
-24 -200 10 l-36 31 -127 0 c-174 -1 -179 -4 -365 -193 -217 -222 -250 -264
-414 -535 -13 -20 -23 -45 -23 -55 0 -10 -13 -44 -29 -75 -61 -120 -110 -248
-116 -307 -7 -65 -24 -126 -62 -218 -18 -45 -23 -77 -23 -141 0 -56 -6 -96
-17 -122 -13 -32 -16 -78 -17 -264 -1 -303 25 -497 89 -670 8 -22 22 -58 30
-81 33 -89 93 -185 175 -282 20 -23 41 -53 48 -67 7 -14 77 -91 155 -171 118
-121 158 -154 235 -200 51 -30 109 -64 130 -77 20 -12 62 -35 92 -51 30 -15
89 -47 130 -71 140 -79 153 -81 525 -87 402 -6 667 7 742 35 68 26 150 90 251
196 l82 87 197 9 c109 5 290 14 403 20 200 12 209 12 385 -14 99 -14 211 -35
250 -46 38 -11 76 -20 83 -20 10 0 12 154 10 758 l-3 757 -50 13 c-64 16 -155
31 -224 36 -29 3 -58 9 -64 15 -16 16 -47 13 -47 -4 0 -11 -11 -15 -40 -15
-29 0 -40 4 -40 15 0 8 -4 15 -10 15 -5 0 -7 -8 -4 -17 5 -15 4 -16 -5 -3 -10
13 -12 13 -21 0 -11 -16 -11 -15 10 104 5 32 13 135 17 227 l6 169 106 -5 c58
-3 166 -3 239 1 l132 7 0 61 0 62 -165 -4 c-91 -3 -165 0 -165 4 0 14 128 433
152 497 19 52 20 72 15 187 -6 147 -12 161 -93 249 -81 88 -136 111 -282 118
-99 5 -121 9 -150 30 -29 19 -48 23 -107 23 l-72 0 -51 51 -50 50 -109 -6
-108 -7 -20 43 c-11 24 -47 73 -81 108 l-61 65 -114 3 c-74 2 -125 -2 -146
-10z m196 -120 c13 -6 29 -26 35 -43 6 -17 19 -42 29 -55 l18 -24 -6 25 c-4
14 11 -6 33 -45 l39 -70 126 3 126 3 63 -79 c35 -43 76 -89 93 -100 37 -27 54
-15 36 25 -12 26 -14 26 -25 10 -18 -23 -29 -22 -16 2 13 25 13 34 0 26 -5 -3
-10 -1 -10 4 0 6 12 11 28 11 15 0 36 3 47 6 12 3 34 -4 56 -19 30 -20 52 -25
151 -30 154 -9 205 -32 269 -120 33 -45 40 -115 14 -141 -8 -8 -15 -21 -15
-29 0 -8 -13 -34 -30 -58 -16 -24 -30 -50 -30 -57 0 -7 -5 -10 -10 -7 -6 3
-14 -4 -19 -17 -5 -13 -19 -32 -32 -42 -25 -21 -109 -33 -109 -16 0 7 -6 7
-21 0 -11 -7 -18 -14 -15 -17 3 -4 1 -12 -5 -20 -16 -18 -78 -17 -85 2 -4 8
-17 15 -30 15 -13 0 -24 4 -24 10 0 5 -12 13 -27 16 -16 4 -31 11 -34 16 -4 6
-42 12 -85 14 -44 2 -93 8 -111 13 -19 6 -47 6 -70 0 -21 -5 -81 -8 -134 -8
-83 1 -102 -2 -151 -25 -30 -14 -60 -26 -67 -26 -6 0 -34 -11 -61 -25 -70 -36
-113 -39 -199 -16 -41 11 -79 17 -83 15 -5 -3 -14 -1 -21 4 -7 5 -25 12 -42
16 -16 4 -47 19 -67 32 -35 25 -39 25 -110 15 -40 -7 -93 -11 -118 -10 -65 2
-152 -14 -180 -34 -14 -9 -34 -17 -45 -17 -31 -1 -58 -26 -52 -50 7 -27 -19
-26 -107 4 -74 24 -151 88 -162 133 -10 36 -27 27 -20 -9 20 -101 110 -189
277 -273 116 -59 168 -93 243 -164 81 -77 143 -161 172 -231 13 -33 24 -62 24
-65 0 -15 -27 0 -85 48 -45 37 -80 57 -117 66 -89 23 -130 61 -65 61 46 0 125
-28 166 -58 20 -15 32 -19 29 -11 -5 15 -98 84 -135 99 -12 5 -39 20 -60 33
-21 14 -62 28 -91 32 -29 4 -71 16 -95 28 l-42 20 39 18 c34 15 37 18 20 27
-22 11 -103 27 -123 23 -28 -5 -42 8 -32 28 9 17 6 19 -27 23 -20 3 -50 1 -67
-4 -49 -14 -122 -10 -128 7 -7 18 -3 20 47 29 21 4 53 15 72 23 32 16 33 18
17 35 -9 10 -24 18 -34 18 -10 0 -21 5 -24 10 -3 6 -16 10 -29 10 -12 0 -55
11 -94 25 -76 27 -118 31 -169 16 -50 -14 -187 -25 -180 -14 11 18 142 61 205
68 44 4 84 1 133 -11 59 -14 72 -15 79 -4 14 23 -7 47 -67 77 -53 26 -67 28
-170 28 -61 0 -115 3 -119 7 -4 4 -1 15 6 24 13 14 5 15 -76 11 -109 -5 -143
-18 -136 -54 6 -29 -10 -42 -53 -44 -16 0 -24 -3 -17 -6 6 -2 12 -10 12 -17 0
-18 50 -63 83 -75 16 -6 44 -11 64 -11 30 0 34 -2 23 -15 -7 -8 -28 -15 -47
-15 -21 0 -36 -6 -39 -15 -13 -33 5 -40 219 -96 64 -17 41 -29 -55 -29 -102 0
-176 24 -185 59 -2 10 -18 29 -35 41 -25 18 -35 21 -49 12 -13 -8 -19 -8 -23
1 -5 9 -7 9 -12 0 -3 -7 -19 -13 -36 -13 -19 0 -45 -12 -69 -31 l-39 -31 31
-39 c25 -31 37 -39 64 -39 19 0 37 -5 40 -10 10 -17 -26 -24 -66 -13 -32 8
-44 7 -69 -8 -16 -10 -30 -23 -30 -28 0 -15 -41 -51 -57 -51 -8 0 -20 15 -28
33 -8 17 -14 28 -15 23 0 -5 -6 -3 -14 3 -12 10 -17 8 -26 -9 -6 -12 -14 -19
-17 -16 -6 6 46 132 96 233 17 34 31 68 31 75 0 7 15 39 33 70 157 276 161
282 372 492 67 66 138 127 160 137 28 13 64 19 118 19 77 0 78 0 122 -41 36
-33 49 -40 67 -34 23 7 50 11 221 35 110 15 310 8 402 -14 39 -9 108 -18 155
-19 l85 -2 73 48 c40 26 115 87 165 136 51 48 99 91 107 94 28 10 115 7 139
-6z m-837 -1040 c13 -13 40 -33 59 -45 19 -12 28 -22 21 -22 -7 0 -10 -5 -7
-10 4 -6 10 -8 15 -5 5 3 16 -3 26 -12 17 -17 17 -18 0 -21 -10 -2 -31 5 -46
17 -16 11 -34 22 -40 23 -6 2 -28 18 -48 35 -19 18 -44 36 -55 39 -16 5 -17 8
-6 15 24 15 55 10 81 -14z m-549 -34 c-7 -2 -19 -2 -25 0 -7 3 -2 5 12 5 14 0
19 -2 13 -5z m-154 -198 c35 -7 71 -20 79 -29 12 -12 13 -16 3 -16 -7 0 -11
-6 -8 -14 4 -11 -5 -11 -61 1 -37 7 -123 18 -192 23 -69 6 -144 17 -167 26
-24 8 -47 13 -53 9 -14 -9 -32 4 -24 17 9 14 337 1 423 -17z m-624 -5 c-3 -5
-10 -10 -16 -10 -5 0 -9 5 -9 10 0 6 7 10 16 10 8 0 12 -4 9 -10z m-165 -44
c0 -8 30 -49 66 -91 55 -66 64 -82 59 -104 -13 -53 -43 -54 -66 -3 -7 16 -18
28 -23 26 -6 -2 -20 9 -31 25 -10 16 -23 27 -27 25 -4 -3 -8 0 -8 7 0 28 -15
-6 -25 -59 -8 -37 -16 -57 -26 -57 -8 0 -17 -7 -21 -15 -16 -36 -7 24 11 68
15 39 37 107 57 180 5 17 34 15 34 -2z m300 -87 c-6 -10 -30 -30 -55 -44 -36
-22 -48 -24 -65 -15 l-22 12 22 23 c24 26 97 55 117 48 9 -4 10 -10 3 -24z
m1731 -105 c19 -9 43 -28 54 -41 69 -83 73 -86 90 -69 20 20 50 14 128 -27 64
-33 71 -55 23 -68 -23 -7 -44 -2 -92 21 -34 17 -71 30 -81 30 -11 0 -31 9 -44
20 -13 11 -28 23 -34 28 -68 54 -112 56 -202 7 -36 -19 -69 -33 -74 -29 -5 3
-9 21 -9 41 0 42 30 83 73 100 41 16 125 10 168 -13z m-2039 -83 c12 -12 18
-26 14 -36 -5 -14 -8 -14 -24 2 -42 40 -32 73 10 34z m816 -18 c35 -12 51 -23
49 -33 -4 -23 -51 -15 -102 17 -76 48 -56 54 53 16z m-658 -68 c74 -9 90 -14
90 -29 0 -10 -17 -12 -62 -11 -81 4 -148 15 -148 26 0 15 43 39 54 30 6 -5 36
-12 66 -16z m2387 -23 c11 -7 43 -72 43 -87 0 -13 -20 -3 -49 24 -30 28 -38
50 -24 64 8 9 15 9 30 -1z m-489 -34 c3 -15 -2 -17 -29 -14 -18 2 -35 9 -37
16 -3 8 0 10 7 6 6 -4 11 -2 11 4 0 18 44 7 48 -12z m-2168 -53 c0 -14 -3 -25
-7 -25 -5 0 -8 11 -8 25 0 14 3 25 8 25 4 0 7 -11 7 -25z m30 -24 c5 -17 5
-29 0 -26 -4 3 -11 -1 -13 -7 -3 -7 -6 7 -6 31 -1 49 5 50 19 2z m2309 -57
c17 -18 26 -36 21 -39 -9 -5 -47 -1 -105 12 -11 3 -25 5 -30 5 -15 2 -16 35
-2 46 35 29 76 20 116 -24z m-135 -35 c4 -19 15 -45 27 -57 13 -15 16 -22 6
-22 -28 0 -70 104 -50 124 8 8 9 7 17 -45z m202 -36 c-10 -10 -19 5 -10 18 6
11 8 11 12 0 2 -7 1 -15 -2 -18z m-1942 -861 c10 -12 16 -26 14 -33 -4 -13
-88 68 -88 84 0 10 48 -24 74 -51z m-199 -57 c52 -31 110 -62 130 -70 19 -9
35 -21 35 -28 1 -6 22 -27 49 -46 26 -19 53 -46 59 -60 11 -23 91 -91 107 -91
10 0 136 -102 132 -107 -3 -2 -22 3 -43 11 -32 13 -63 15 -102 7 -2 -1 15 -18
37 -39 23 -21 41 -42 41 -48 0 -5 10 -14 22 -19 12 -6 24 -16 26 -24 3 -8 0
-11 -7 -7 -6 4 -11 2 -11 -3 0 -6 12 -11 26 -11 14 0 23 -4 20 -8 -3 -5 7 -15
22 -23 32 -16 78 -49 68 -49 -8 0 -67 31 -118 62 -83 52 -148 88 -158 88 -5 0
-10 3 -10 8 0 4 -15 14 -32 21 -49 22 -213 195 -250 264 -10 18 -29 41 -42 52
-30 25 -94 126 -89 141 2 6 -3 17 -12 24 -8 7 -15 20 -15 29 1 14 2 14 11 -1
5 -10 52 -43 104 -73z m300 5 c3 -5 1 -10 -4 -10 -6 0 -11 5 -11 10 0 6 2 10
4 10 3 0 8 -4 11 -10z m50 -31 c11 -17 0 -20 -21 -4 -17 13 -17 14 -2 15 9 0
20 -5 23 -11z m-160 -49 c3 -6 0 -10 -7 -10 -15 0 -38 19 -38 32 0 10 36 -8
45 -22z m210 -1 c11 -17 2 -18 -19 -3 -17 12 -17 14 -4 14 9 0 20 -5 23 -11z
m53 -53 c3 -12 -1 -17 -10 -14 -7 3 -15 13 -16 22 -3 12 1 17 10 14 7 -3 15
-13 16 -22z m-96 -42 c20 -7 31 -31 18 -39 -5 -3 -15 4 -23 15 -7 11 -16 17
-19 15 -3 -3 -8 1 -12 10 -4 11 -2 15 6 11 7 -3 21 -9 30 -12z m53 -58 c8 -7
11 -16 8 -19 -5 -6 -33 17 -33 27 0 10 11 7 25 -8z"/>
<path d="M2519 3700 c-18 -22 -36 -37 -41 -34 -5 3 -7 2 -6 -3 1 -4 -3 -18
-10 -31 -11 -19 -10 -25 11 -46 14 -14 41 -28 61 -31 20 -4 36 -11 36 -16 0
-5 12 -15 26 -22 43 -23 175 5 174 36 -1 14 -51 51 -92 68 -22 8 -28 19 -33
54 -5 30 -13 46 -28 53 -42 19 -66 12 -98 -28z"/>
<path d="M1010 3321 c-61 -32 -80 -41 -92 -41 -7 0 -32 -19 -55 -41 -24 -22
-43 -38 -43 -35 0 3 -22 -8 -49 -24 -26 -17 -52 -30 -56 -30 -5 0 -19 -10 -31
-21 -20 -19 -21 -23 -9 -36 17 -17 27 -12 132 58 65 45 135 78 251 119 41 15
69 18 115 14 46 -4 58 -3 47 5 -8 6 -24 11 -35 11 -11 0 -29 7 -39 15 -21 16
-110 20 -136 6z"/>
<path d="M988 3162 c-42 -15 -79 -30 -83 -33 -3 -4 14 -11 39 -18 24 -6 52
-18 61 -27 13 -14 28 -15 93 -8 42 5 84 7 92 6 8 -1 40 -5 70 -8 l55 -6 -53
50 c-81 79 -144 89 -274 44z"/>
<path d="M541 2894 c-12 -14 -20 -28 -17 -32 7 -6 56 37 56 50 0 15 -16 8 -39
-18z"/>
<path d="M453 2680 c3 -10 1 -20 -4 -22 -5 -2 0 -11 11 -20 11 -10 20 -13 20
-7 0 5 5 7 10 4 7 -4 8 3 4 22 -9 38 -13 43 -31 43 -10 0 -14 -6 -10 -20z"/>
<path d="M480 881 c57 -52 125 -89 139 -76 10 10 -37 48 -112 91 -44 24 -82
44 -86 44 -3 -1 23 -27 59 -59z"/>
</g>
</svg>
